<svg width="20" height="20" viewBox="0 0 20 20" fill="none" xmlns="http://www.w3.org/2000/svg">
<g id="cuida:dashboard-outline">
<path id="Vector" fill-rule="evenodd" clip-rule="evenodd" d="M3.9342 9.18462H6.6902C6.78886 9.18462 6.95112 9.18462 7.09952 9.19767C7.28298 9.21398 7.59609 9.25964 7.92714 9.44473C8.25527 9.62845 8.52618 9.89937 8.70991 10.2275C8.89418 10.5577 8.93984 10.8708 8.95615 11.0543C8.97001 11.2035 8.9692 11.365 8.9692 11.4636V15.8749C8.9692 15.9735 8.9692 16.1358 8.95615 16.2842C8.93984 16.4676 8.895 16.7807 8.70909 17.1118C8.52537 17.4399 8.25445 17.7108 7.92632 17.8946C7.67145 18.0347 7.38953 18.1186 7.09952 18.1408C6.95031 18.1539 6.78886 18.1539 6.6902 18.1539H3.90974C3.81189 18.1539 3.64881 18.1539 3.50041 18.1408C3.21034 18.1184 2.92843 18.0342 2.67361 17.8937C2.34548 17.71 2.07457 17.4391 1.89085 17.111C1.75043 16.8562 1.66619 16.5742 1.64378 16.2842C1.63074 16.135 1.63074 15.9735 1.63074 15.8749V11.4636C1.63074 11.3658 1.63074 11.2027 1.64378 11.0543C1.66009 10.8708 1.70575 10.5577 1.89085 10.2275C2.07457 9.89937 2.34548 9.62845 2.67361 9.44473C2.92843 9.30432 3.21034 9.22008 3.50041 9.19767C3.64963 9.18462 3.81108 9.18462 3.90974 9.18462H3.9342ZM3.31369 11.0241C3.26151 11.1171 3.26151 11.2394 3.26151 11.4889V15.8512C3.26151 16.0983 3.26151 16.2222 3.31369 16.3143C3.35044 16.38 3.40462 16.4342 3.47024 16.4709C3.5632 16.5231 3.68632 16.5231 3.9342 16.5231H6.66574C6.91361 16.5231 7.03755 16.5231 7.13051 16.4709C7.19583 16.434 7.24972 16.3799 7.28624 16.3143C7.33843 16.2222 7.33843 16.0991 7.33843 15.8504V11.4881C7.33843 11.2402 7.33843 11.1171 7.28624 11.0233C7.24938 10.958 7.19521 10.9041 7.12969 10.8676C7.03755 10.8154 6.91443 10.8154 6.66574 10.8154H3.9342C3.68632 10.8154 3.5632 10.8154 3.46943 10.8676C3.4041 10.9044 3.35021 10.9586 3.31369 11.0241ZM3.9342 1.84616H6.6902C6.78886 1.84616 6.95112 1.84616 7.09952 1.85921C7.28298 1.87551 7.59609 1.92118 7.92714 2.10627C8.25527 2.28999 8.52618 2.56091 8.70991 2.88904C8.89418 3.21927 8.93984 3.53238 8.95615 3.71584C8.97001 3.86505 8.9692 4.0265 8.9692 4.12516V6.09024C8.9692 6.1889 8.9692 6.35116 8.95615 6.49956C8.93984 6.68302 8.895 6.99613 8.70909 7.32718C8.52537 7.65531 8.25445 7.92622 7.92632 8.10995C7.67145 8.25007 7.38953 8.33403 7.09952 8.35619C6.95031 8.37005 6.78886 8.36924 6.6902 8.36924H3.90974C3.81189 8.36924 3.64881 8.36924 3.50041 8.35619C3.21034 8.33378 2.92843 8.24954 2.67361 8.10913C2.34548 7.92541 2.07457 7.65449 1.89085 7.32636C1.75043 7.07155 1.66619 6.78963 1.64378 6.49956C1.63074 6.35035 1.63074 6.1889 1.63074 6.09024V4.12516C1.63074 4.02731 1.63074 3.86424 1.64378 3.71584C1.66009 3.53238 1.70575 3.21927 1.89085 2.88904C2.07457 2.56091 2.34548 2.28999 2.67361 2.10627C2.92843 1.96586 3.21034 1.88162 3.50041 1.85921C3.64963 1.84616 3.81108 1.84616 3.90974 1.84616H3.9342ZM3.31369 3.68567C3.26151 3.77862 3.26151 3.90093 3.26151 4.14962V6.06578C3.26151 6.31365 3.26151 6.43759 3.31369 6.53055C3.35056 6.59587 3.40473 6.64976 3.47024 6.68628C3.5632 6.73847 3.68551 6.73847 3.9342 6.73847H6.66574C6.91361 6.73847 7.03755 6.73847 7.13051 6.68628C7.19583 6.64942 7.24972 6.59525 7.28624 6.52973C7.33843 6.43759 7.33843 6.31447 7.33843 6.06578V4.14962C7.33843 3.90175 7.33843 3.77862 7.28624 3.68485C7.24938 3.61953 7.19521 3.56564 7.12969 3.52911C7.03755 3.47693 6.91443 3.47693 6.66574 3.47693H3.9342C3.68632 3.47693 3.5632 3.47693 3.46943 3.52911C3.4041 3.56598 3.35021 3.62015 3.31369 3.68567ZM12.9034 10.8154H15.6594C15.7581 10.8154 15.9204 10.8154 16.0688 10.8023C16.2522 10.786 16.5653 10.7412 16.8964 10.5553C17.2245 10.3716 17.4954 10.1006 17.6791 9.77251C17.8642 9.44228 17.9091 9.12918 17.9254 8.94571C17.9384 8.7965 17.9384 8.63505 17.9384 8.53639V4.12516C17.9384 4.02731 17.9384 3.86424 17.9254 3.71584C17.903 3.42576 17.8187 3.14385 17.6783 2.88904C17.4946 2.56091 17.2237 2.28999 16.8956 2.10627C16.6407 1.96586 16.3588 1.88162 16.0688 1.85921C15.9195 1.84616 15.7581 1.84616 15.6594 1.84616H12.879C12.7811 1.84616 12.618 1.84616 12.4696 1.85921C12.2862 1.87551 11.9731 1.92118 11.6428 2.10627C11.3147 2.28999 11.0438 2.56091 10.8601 2.88904C10.7197 3.14385 10.6354 3.42576 10.613 3.71584C10.6 3.86505 10.6 4.0265 10.6 4.12516V8.53639C10.6 8.63505 10.6 8.79731 10.613 8.94571C10.6293 9.12918 10.675 9.44228 10.8601 9.77333C11.0438 10.1015 11.3147 10.3724 11.6428 10.5561C11.9731 10.7404 12.2862 10.786 12.4696 10.8023C12.6189 10.8162 12.7803 10.8154 12.879 10.8154H12.9034ZM12.2829 8.97588C12.2307 8.88293 12.2307 8.76062 12.2307 8.51193V4.14962C12.2307 3.90175 12.2307 3.77862 12.2829 3.68485C12.3198 3.61953 12.374 3.56564 12.4395 3.52911C12.5324 3.47693 12.6547 3.47693 12.9042 3.47693H15.6358C15.8828 3.47693 16.0068 3.47693 16.0989 3.52911C16.1645 3.56586 16.2187 3.62004 16.2555 3.68567C16.3077 3.77862 16.3077 3.90175 16.3077 4.14962V8.51193C16.3077 8.75981 16.3077 8.88293 16.2555 8.9767C16.2186 9.04203 16.1644 9.09591 16.0989 9.13244C16.0068 9.18462 15.8828 9.18462 15.635 9.18462H12.9034C12.6556 9.18462 12.5324 9.18462 12.4387 9.13244C12.3733 9.09557 12.3194 9.0414 12.2829 8.97588ZM12.9034 18.1539H15.6594C15.7581 18.1539 15.9204 18.1539 16.0688 18.1408C16.2522 18.1245 16.5653 18.0788 16.8964 17.8937C17.2245 17.71 17.4954 17.4391 17.6791 17.111C17.8642 16.7807 17.9091 16.4676 17.9254 16.2842C17.9384 16.135 17.9384 15.9735 17.9384 15.8749V13.9098C17.9384 13.8119 17.9384 13.6489 17.9254 13.5005C17.903 13.2104 17.8187 12.9285 17.6783 12.6737C17.4946 12.3455 17.2237 12.0746 16.8956 11.8909C16.6407 11.7505 16.3588 11.6662 16.0688 11.6438C15.9195 11.6308 15.7581 11.6308 15.6594 11.6308H12.879C12.7811 11.6308 12.618 11.6308 12.4696 11.6438C12.2862 11.6601 11.9731 11.7058 11.6428 11.8909C11.3147 12.0746 11.0438 12.3455 10.8601 12.6737C10.7197 12.9285 10.6354 13.2104 10.613 13.5005C10.6 13.6497 10.6 13.8111 10.6 13.9098V15.8749C10.6 15.9735 10.6 16.1358 10.613 16.2842C10.6293 16.4676 10.675 16.7807 10.8601 17.1118C11.0438 17.4399 11.3147 17.7108 11.6428 17.8946C11.9731 18.0797 12.2862 18.1245 12.4696 18.1408C12.6189 18.1539 12.7803 18.1539 12.879 18.1539H12.9034ZM12.2829 16.3143C12.2307 16.2222 12.2307 16.0991 12.2307 15.8504V13.9342C12.2307 13.6864 12.2307 13.5632 12.2829 13.4695C12.3198 13.4041 12.374 13.3503 12.4395 13.3137C12.5324 13.2615 12.6556 13.2615 12.9042 13.2615H15.6358C15.8828 13.2615 16.0068 13.2615 16.0989 13.3137C16.1642 13.3504 16.2188 13.4042 16.2555 13.4703C16.3077 13.5632 16.3077 13.6864 16.3077 13.9351V15.8512C16.3077 16.0983 16.3077 16.2222 16.2555 16.3143C16.2187 16.38 16.1645 16.4342 16.0989 16.4709C16.0068 16.5231 15.8828 16.5231 15.635 16.5231H12.9034C12.6556 16.5231 12.5324 16.5231 12.4387 16.4709C12.3733 16.434 12.3194 16.3799 12.2829 16.3143Z" fill="#F5F5F5"/>
</g>
</svg>
